# xmcd
#
# Track frame offsets: 
#        150
#        12679
#        24820
#        38295
#        59440
#        72337
#        85050
#        98051
#        111451
#        124784
#        137404
#        150040
#
# Disc length: 2212 seconds
#
# Revision: 0
# Processed by: cddbd v1.5.2PL0 Copyright (c) Steve Scherf et al.
# Submitted via: ExactAudioCopyFreeDBPlugin 1.0
#
DISCID=8a08a20c
DTITLE=Wellbad - Heartbeast
DYEAR=2019
DGENRE=Blues
TTITLE0=Young
TTITLE1=Elephant Man
TTITLE2=Robbery
TTITLE3=Heal A Wound
TTITLE4=Skeleton
TTITLE5=The Void
TTITLE6=The Overfeeding
TTITLE7=Off-Tuned Body
TTITLE8=Bad Day For The Blues
TTITLE9=Limited Tears
TTITLE10=Let It Sin
TTITLE11=Spit It Out
EXTD=
EXTT0=
EXTT1=
EXTT2=
EXTT3=
EXTT4=
EXTT5=
EXTT6=
EXTT7=
EXTT8=
EXTT9=
EXTT10=
EXTT11=
PLAYORDER=
